<svg width="101" height="161" viewBox="0 0 101 161" fill="none" xmlns="http://www.w3.org/2000/svg">
<path d="M3.36 48V11.284L2.02 4.584L3.36 0.564H26.14C31.1873 0.564 35.2297 1.502 38.267 3.378C41.3043 5.254 42.823 8.29133 42.823 12.49C42.823 14.5893 42.4657 16.4877 41.751 18.185C41.0363 19.8823 40.009 21.2 38.669 22.138C41.7063 23.1207 43.9397 24.617 45.369 26.627C46.7983 28.637 47.513 31.0267 47.513 33.796C47.513 38.6647 46.0837 42.2603 43.225 44.583C40.411 46.861 36.2793 48 30.83 48H3.36ZM15.42 18.989H26.006C27.5247 18.989 28.619 18.6317 29.289 17.917C29.959 17.2023 30.294 16.2643 30.294 15.103C30.294 13.629 29.8027 12.624 28.82 12.088C27.8373 11.552 26.676 11.284 25.336 11.284H15.42V18.989ZM15.42 37.28H28.82C30.428 37.28 31.6117 37.079 32.371 36.677C33.175 36.275 33.6887 35.7613 33.912 35.136C34.18 34.5107 34.314 33.863 34.314 33.193C34.314 32.0317 33.8897 31.049 33.041 30.245C32.237 29.3963 31.0533 28.972 29.49 28.972H15.42V37.28ZM50.1632 48L53.3792 36.677V28.168L58.3372 26.158L67.0472 0.630999H84.4002L95.1872 30.647L100.346 40.161V48H88.4872L85.1372 37.28H65.6402L62.7592 48H50.1632ZM70.0622 26.962H81.4522L76.3602 11.619H74.9532L70.0622 26.962ZM24.733 103.67C21.6957 103.67 18.7477 103.335 15.889 102.665C13.0303 101.95 10.4397 100.7 8.117 98.913C5.839 97.1263 4.03 94.6473 2.69 91.476C1.35 88.3047 0.68 84.24 0.68 79.282C0.68 74.6813 1.35 70.8177 2.69 67.691C4.03 64.5643 5.81667 62.063 8.05 60.187C10.2833 58.311 12.7177 56.971 15.353 56.167C18.033 55.3183 20.713 54.894 23.393 54.894C25.671 54.894 27.882 55.0727 30.026 55.43C32.2147 55.7873 33.8003 56.1893 34.783 56.636L42.22 62.733L36.19 72.448L24.733 66.552C21.5617 66.552 18.8817 67.6017 16.693 69.701C14.5043 71.7557 13.41 74.9493 13.41 79.282C13.41 82.364 13.946 84.8653 15.018 86.786C16.1347 88.7067 17.6533 90.1137 19.574 91.007C21.4947 91.9003 23.6833 92.347 26.14 92.347C28.7307 92.347 30.9417 92.146 32.773 91.744C34.6043 91.2973 36.2123 90.7837 37.597 90.203C38.9817 89.5777 40.2993 88.9747 41.55 88.394V99.65C39.9867 100.633 37.9097 101.548 35.319 102.397C32.7283 103.246 29.1997 103.67 24.733 103.67ZM69.2435 103.67C62.3648 103.67 57.1835 102.107 53.6995 98.98C50.2602 95.8087 48.5405 90.739 48.5405 83.771V66.351L48.6075 59.584L48.5405 55.564H60.7345V82.431C60.7345 85.5577 61.3598 88.1037 62.6105 90.069C63.8612 91.9897 66.0722 92.95 69.2435 92.95C72.4148 92.95 74.6482 92.0567 75.9435 90.27C77.2835 88.4387 77.9535 85.8257 77.9535 82.431V55.564H89.9465V83.771C89.9465 90.605 88.2492 95.63 84.8545 98.846C81.5045 102.062 76.3008 103.67 69.2435 103.67ZM3.36 158V121.351L2.02 114.584L3.36 110.564H24.8C28.0607 110.564 30.9863 111.078 33.577 112.105C36.2123 113.088 38.2893 114.785 39.808 117.197C41.3713 119.564 42.153 122.847 42.153 127.046C42.153 130.843 41.4607 133.925 40.076 136.292C38.6913 138.615 36.7707 140.357 34.314 141.518L34.984 142.255L41.617 150.563L45.436 153.98V158H30.361L20.981 143.729H15.42V147.213L16.09 153.913L15.42 158H3.36ZM15.42 133.21H21.986C24.3087 133.21 26.1623 132.786 27.547 131.937C28.9317 131.044 29.624 129.413 29.624 127.046C29.624 125.393 29.289 124.165 28.619 123.361C27.949 122.512 27.011 121.954 25.805 121.686C24.6437 121.418 23.2813 121.284 21.718 121.284H14.75L15.42 133.21ZM50.7808 158V121.284L50.1108 114.584L50.7808 110.564H62.9078V158H50.7808ZM77.6175 160.01L70.2475 152.64L77.6175 145.27L84.9875 152.64L77.6175 160.01Z" fill="white"/>
</svg>
